<svg width="340" height="17" viewBox="0 0 340 17" fill="none" xmlns="http://www.w3.org/2000/svg">
<path d="M164.5 9.57C164.5 8.51533 164.832 7.64267 165.494 6.952C166.166 6.26133 167.011 5.916 168.028 5.916C169.046 5.916 169.886 6.26133 170.548 6.952C171.22 7.64267 171.556 8.51533 171.556 9.57C171.556 10.634 171.22 11.5067 170.548 12.188C169.886 12.8787 169.046 13.224 168.028 13.224C167.011 13.224 166.166 12.8787 165.494 12.188C164.832 11.4973 164.5 10.6247 164.5 9.57ZM165.788 9.57C165.788 10.3073 166.003 10.9047 166.432 11.362C166.862 11.8193 167.394 12.048 168.028 12.048C168.663 12.048 169.195 11.8193 169.624 11.362C170.054 10.9047 170.268 10.3073 170.268 9.57C170.268 8.842 170.054 8.24933 169.624 7.792C169.186 7.32533 168.654 7.092 168.028 7.092C167.403 7.092 166.871 7.32533 166.432 7.792C166.003 8.24933 165.788 8.842 165.788 9.57ZM173.878 13H172.59V6.14H173.822V7.26H173.878C174.008 6.896 174.274 6.588 174.676 6.336C175.086 6.07467 175.488 5.944 175.88 5.944C176.253 5.944 176.57 6 176.832 6.112L176.44 7.358C176.281 7.29267 176.029 7.26 175.684 7.26C175.198 7.26 174.774 7.456 174.41 7.848C174.055 8.24 173.878 8.69733 173.878 9.22V13Z" fill="white"/>
<line x1="0.996774" y1="10.5" x2="155.997" y2="9.50001" stroke="white"/>
<line x1="184.997" y1="9.50001" x2="339.997" y2="8.50001" stroke="white"/>
</svg>
