<svg width="87" height="87" viewBox="0 0 87 87" fill="none" xmlns="http://www.w3.org/2000/svg">
<circle cx="43.5" cy="43.5" r="43.5" fill="#242424"/>
<path d="M47.1105 43.4978L63.2426 27.3896C63.7247 26.9074 63.9956 26.2534 63.9956 25.5714C63.9956 24.8894 63.7247 24.2354 63.2426 23.7531C62.7604 23.2709 62.1064 23 61.4245 23C60.7426 23 60.0886 23.2709 59.6065 23.7531L43.5 39.8869L27.3935 23.7531C26.9114 23.2709 26.2574 23 25.5755 23C24.8936 23 24.2396 23.2709 23.7574 23.7531C23.2753 24.2354 23.0044 24.8894 23.0044 25.5714C23.0044 26.2534 23.2753 26.9074 23.7574 27.3896L39.8895 43.4978L23.7574 59.606C23.5174 59.8441 23.3269 60.1273 23.1969 60.4394C23.0669 60.7514 23 61.0862 23 61.4242C23 61.7623 23.0669 62.097 23.1969 62.4091C23.3269 62.7212 23.5174 63.0044 23.7574 63.2425C23.9955 63.4825 24.2787 63.673 24.5907 63.8031C24.9028 63.9331 25.2375 64 25.5755 64C25.9135 64 26.2482 63.9331 26.5603 63.8031C26.8723 63.673 27.1555 63.4825 27.3935 63.2425L43.5 47.1087L59.6065 63.2425C59.8445 63.4825 60.1277 63.673 60.4397 63.8031C60.7518 63.9331 61.0865 64 61.4245 64C61.7625 64 62.0972 63.9331 62.4093 63.8031C62.7213 63.673 63.0045 63.4825 63.2426 63.2425C63.4826 63.0044 63.6731 62.7212 63.8031 62.4091C63.9331 62.097 64 61.7623 64 61.4242C64 61.0862 63.9331 60.7514 63.8031 60.4394C63.6731 60.1273 63.4826 59.8441 63.2426 59.606L47.1105 43.4978Z" fill="white"/>
</svg>
