<svg width="20" height="20" viewBox="0 0 20 20" fill="none" xmlns="http://www.w3.org/2000/svg">
<g id="Google" clip-path="url(#clip0_152_331)">
<path id="Vector" d="M19.9895 10.1871C19.9895 9.3677 19.9214 8.76977 19.7742 8.14969H10.1992V11.848H15.8195C15.7062 12.7671 15.0943 14.1512 13.7346 15.0813L13.7155 15.2051L16.7429 17.4969L16.9527 17.5174C18.8789 15.7789 19.9895 13.2211 19.9895 10.1871Z" fill="#4285F4"/>
<path id="Vector_2" d="M10.1993 19.9313C12.9527 19.9313 15.2643 19.0454 16.9527 17.5174L13.7346 15.0813C12.8734 15.6682 11.7176 16.0779 10.1993 16.0779C7.50242 16.0779 5.21352 14.3395 4.39759 11.9366L4.27799 11.9466L1.13003 14.3273L1.08887 14.4391C2.76588 17.6945 6.2106 19.9313 10.1993 19.9313Z" fill="#34A853"/>
<path id="Vector_3" d="M4.39748 11.9366C4.18219 11.3166 4.05759 10.6521 4.05759 9.96565C4.05759 9.27908 4.18219 8.61473 4.38615 7.99466L4.38045 7.8626L1.19304 5.44366L1.08875 5.49214C0.397576 6.84305 0.000976562 8.36008 0.000976562 9.96565C0.000976562 11.5712 0.397576 13.0882 1.08875 14.4391L4.39748 11.9366Z" fill="#FBBC05"/>
<path id="Vector_4" d="M10.1993 3.85339C12.1142 3.85339 13.406 4.66171 14.1425 5.33721L17.0207 2.5911C15.253 0.985527 12.9527 3.05176e-05 10.1993 3.05176e-05C6.2106 3.05176e-05 2.76588 2.23675 1.08887 5.49217L4.38626 7.99469C5.21352 5.59186 7.50242 3.85339 10.1993 3.85339Z" fill="#EB4335"/>
</g>
<defs>
<clipPath id="clip0_152_331">
<rect width="20" height="20" fill="white"/>
</clipPath>
</defs>
</svg>
