<svg width="54" height="22" viewBox="0 0 54 22" fill="none" xmlns="http://www.w3.org/2000/svg">
<path d="M5.35734 13.872V22H0.877344V1.296H5.35734V9.968H8.90934V1.296H13.3893V22H8.90934V13.872H5.35734ZM20.9801 14.896V18.32H27.8921V22H16.8841V14.544C16.8841 11.728 18.2068 10.32 20.8521 10.32H23.4121C23.5828 10.32 23.7214 10.256 23.8281 10.128C23.9561 10 24.0201 9.85067 24.0201 9.68V5.104C24.0201 4.93333 23.9561 4.784 23.8281 4.656C23.7214 4.528 23.5828 4.464 23.4121 4.464H21.5241C21.3534 4.464 21.2041 4.528 21.0761 4.656C20.9694 4.784 20.9161 4.93333 20.9161 5.104V6.736H16.6601V5.2C16.6601 2.384 17.9828 0.976 20.6281 0.976H24.1801C26.8254 0.976 28.1481 2.384 28.1481 5.2V10.032C28.1481 12.848 26.8254 14.256 24.1801 14.256H21.5881C21.4174 14.256 21.2681 14.32 21.1401 14.448C21.0334 14.576 20.9801 14.7253 20.9801 14.896Z" fill="#00B4D8"/>
<path d="M34.3998 15.904V22H31.0398V6.472H38.0478V9.376H34.3998V13.096H37.8078V15.904H34.3998ZM43.3764 6.472V22H40.0164V6.472H43.3764ZM44.9878 9.328V6.472H53.3878V9.328H50.8678V22H47.5078V9.328H44.9878Z" fill="white"/>
</svg>
