<svg width="36" height="38" viewBox="0 0 36 38" fill="none" xmlns="http://www.w3.org/2000/svg">
<path d="M25.0833 15.5579L16.125 10.1211C15.5805 9.79106 14.963 9.61721 14.3343 9.61704C13.7056 9.61687 13.0879 9.79038 12.5433 10.1202C11.9986 10.4499 11.5462 10.9244 11.2315 11.4958C10.9167 12.0672 10.7507 12.7156 10.75 13.3757V24.2493C10.7507 24.9091 10.9165 25.5571 11.231 26.1284C11.5455 26.6996 11.9975 27.174 12.5417 27.5039C13.0864 27.8341 13.7043 28.0079 14.3333 28.0079C14.9623 28.0079 15.5803 27.8341 16.125 27.5039L25.0833 22.0671C25.6264 21.7363 26.0771 21.2616 26.3904 20.6904C26.7037 20.1192 26.8687 19.4716 26.8687 18.8125C26.8687 18.1533 26.7037 17.5058 26.3904 16.9346C26.0771 16.3634 25.6264 15.8887 25.0833 15.5579ZM23.2917 18.8125L14.3333 24.2493V13.3757L23.2917 18.8125ZM17.9167 0C14.3731 0 10.9091 1.10333 7.96271 3.17048C5.01633 5.23762 2.7199 8.17573 1.36383 11.6133C0.00776301 15.0508 -0.347047 18.8334 0.344272 22.4826C1.03559 26.1319 2.74199 29.484 5.24768 32.1149C7.75337 34.7459 10.9458 36.5376 14.4213 37.2635C17.8968 37.9894 21.4992 37.6168 24.7731 36.193C28.0469 34.7691 30.8451 32.3579 32.8138 29.2642C34.7825 26.1705 35.8333 22.5333 35.8333 18.8125C35.8333 16.342 35.3699 13.8957 34.4695 11.6133C33.5691 9.33083 32.2494 7.25695 30.5857 5.51005C28.922 3.76315 26.9468 2.37743 24.7731 1.43202C22.5993 0.4866 20.2695 0 17.9167 0ZM17.9167 33.8625C15.0818 33.8625 12.3106 32.9798 9.9535 31.3261C7.5964 29.6724 5.75926 27.3219 4.6744 24.5719C3.58955 21.8219 3.3057 18.7958 3.85875 15.8764C4.41181 12.957 5.77692 10.2753 7.78148 8.17054C9.78603 6.06576 12.34 4.63239 15.1204 4.05168C17.9008 3.47097 20.7827 3.76901 23.4018 4.90811C26.0209 6.04721 28.2594 7.97621 29.8344 10.4512C31.4094 12.9261 32.25 15.8359 32.25 18.8125C32.25 22.804 30.7399 26.632 28.0519 29.4544C25.3639 32.2769 21.7181 33.8625 17.9167 33.8625Z" fill="white"/>
</svg>
