<svg width="20" height="20" viewBox="0 0 20 20" fill="none" xmlns="http://www.w3.org/2000/svg">
<g id="Twitter">
<path id="Vector" d="M20 4.42374C19.2477 4.75186 18.452 4.96994 17.6375 5.07124C18.4958 4.56202 19.1376 3.75569 19.4413 2.80499C18.6375 3.28166 17.7582 3.61733 16.8412 3.79749C16.2791 3.19721 15.5493 2.77989 14.7469 2.59973C13.9444 2.41957 13.1063 2.48492 12.3415 2.78727C11.5766 3.08962 10.9204 3.615 10.458 4.29516C9.99566 4.97531 9.74853 5.7788 9.74875 6.60124C9.74875 6.92624 9.77625 7.23874 9.84375 7.53624C8.2126 7.45626 6.6167 7.03292 5.16038 6.29388C3.70406 5.55485 2.42012 4.51676 1.3925 3.24749C0.866024 4.14981 0.703261 5.21887 0.937354 6.23699C1.17145 7.25511 1.78479 8.14572 2.6525 8.72749C2.00345 8.71008 1.36809 8.53688 0.8 8.22249V8.26749C0.801087 9.21428 1.12833 10.1318 1.72665 10.8656C2.32496 11.5993 3.15781 12.1046 4.085 12.2962C3.73423 12.3887 3.37273 12.4341 3.01 12.4312C2.74949 12.4359 2.48923 12.4124 2.23375 12.3612C2.49868 13.175 3.00936 13.8867 3.69549 14.3982C4.38162 14.9097 5.20945 15.1959 6.065 15.2175C4.61367 16.3525 2.82372 16.9683 0.98125 16.9662C0.645 16.9662 0.3225 16.9512 0 16.91C1.87485 18.1182 4.05959 18.7573 6.29 18.75C13.835 18.75 17.96 12.5 17.96 7.08249C17.96 6.90124 17.9537 6.72624 17.945 6.55249C18.7537 5.97372 19.4501 5.25234 20 4.42374Z" fill="#03A9F4"/>
</g>
</svg>
